<?xml version="1.0" encoding="utf-8"?>
<!-- Generator: Adobe Illustrator 15.0.0, SVG Export Plug-In . SVG Version: 6.00 Build 0)  -->
<!DOCTYPE svg PUBLIC "-//W3C//DTD SVG 1.1//EN" "http://www.w3.org/Graphics/SVG/1.1/DTD/svg11.dtd">
<svg version="1.1" id="Layer_1" xmlns="http://www.w3.org/2000/svg" xmlns:xlink="http://www.w3.org/1999/xlink" x="0px" y="0px"
	 width="1024px" height="768px" viewBox="0 0 1024 768" enable-background="new 0 0 1024 768" xml:space="preserve">
 <path id="gansu"
        fill="green" stroke="black" stroke-width="1"
    d="M196.462,200.108l-1.43-16.55l0.836-3.453l4.879-2.262c0,0,5.209-5.03,6.903-5.717c1.696-0.686,10.6-4.285,10.6-4.285l4.285-2.025v-4.047l1.905-2.262l1.788,0.237l7.144,1.192l-0.358,3.095l1.43,4.88l-0.834,7.978l6.072,8.929l3.097,2.026l4.883-3.812h10.237l2.623,0.953l1.429,2.264l-1.193,2.499l-5.714,4.645l0.597,2.261l6.549,4.882h2.618l0.834,1.07l-0.596,2.025l4.05,3.217l9.404,1.429l4.525-1.19l5.718-5.719l6.903,0.598l2.855,4.287l-1.664,3.929l0.475,2.382l-3.688,2.263l-1.668,2.024l0.596,4.763l6.545,4.646l2.875-0.653l7.725,9.458l1.668,7.145l-0.834,3.451l5.357,2.859v2.26l4.883,1.192h1.426v-4.05l3.693-0.595l0.951-4.763l-2.619-2.026l-2.025-2.021l0.834-9.166l2.023-1.071l3.453,1.43l1.432-0.598l0.834,1.667l9.166,4.639l4.883,3.1l0.832,2.856l-2.619,3.691l1.431,4.285l-0.834,2.021l-6.785,0.6l-1.433,0.833l0.478,1.191v1.903l-5.355,0.594l-2.856-1.428h-3.691l-0.596,0.834l0.596,2.024l-1.789,2.023l-0.592,2.262l3.449,2.857l-2.498,5.119l1.072,2.622l-0.238,1.188h-4.051l-2.854,1.435l2.26,3.091l-1.428,4.051l-4.287,1.07l0.357,2.023l-1.189,1.428l-7.383-0.596l-2.854-2.021l-0.601-4.525l-1.664-1.669l-2.62,1.669l-4.523-4.521l-3.455-2.385l-0.354-3.335l-1.074-2.619h-1.787l-7.144,3.096l0.356,3.454h-2.618l-4.287-4.288l-4.525-0.593l-1.786-2.499l1.431-2.86l2.617,2.5l3.097,0.954l2.62-2.025v-4.881l2.857-2.62l2.265-2.263l-1.073-2.856l5.716-4.522l0.832-7.147l-2.619-3.688l-1.429-6.071l-7.144-9.405l-3.692,1.431l-5.118-4.524l-6.907-4.287l-2.856-6.905l-5.359,2.023l-9.999-6.309l-4.883,2.616l-7.501-1.188l-5.714,3.452l-3.691,0.237l-5.715-3.451l-3.93-2.265L196.462,200.108Z"/>

</svg>
