<?xml version="1.0" encoding="utf-8"?>
<!-- Generator: Adobe Illustrator 15.0.0, SVG Export Plug-In . SVG Version: 6.00 Build 0)  -->
<!DOCTYPE svg PUBLIC "-//W3C//DTD SVG 1.1//EN" "http://www.w3.org/Graphics/SVG/1.1/DTD/svg11.dtd">
<svg version="1.1" id="Layer_1" xmlns="http://www.w3.org/2000/svg" xmlns:xlink="http://www.w3.org/1999/xlink" x="0px" y="0px"
	 width="1024px" height="768px" viewBox="0 0 1024 768" enable-background="new 0 0 1024 768" xml:space="preserve">
<path id="yunnan"
        fill="green" stroke="black" stroke-width="3"
    d="M300,200.296
    l-1.672-5.716
    l-5.236-1.908
    l-8.566,5.244
    l-5.718-2.864
    l-0.476-7.376
    l-2.86-3.58
    v-3.806
    l-8.098-1.904
    l-2.14,2.376
    l1.198,5.178
    l-6.343,2.86
    l-1.668,4.042
    l1.668,5.0
    l-14.292,16.672
    l2.382,19.532
    l-6.906,5.708
    l-3.332-3.568
    l-13.814,8.096
    l-5.236-2.862
    c0,0-22.070-44.212-20.004-38.344
    c3.066,5.976-7.862-5.708-7.862-5.708l-6.426-1.668
    l-2.864-5.238
    l3.574-5.718
    l-2.857-4.526
    l-6.910,5.718
    l-6.902,2.392
    l-4.526-20.726
    l-1.092-4.998
    l-6.908,8.572
    l-2.854,1.662
    l0.712,13.102
    l-1.668,2.862
    h-3.568
    l-5.72-5.724
    l-1.667,4.052
    l2.334,14.762h4.048
    l3.334,3.38c0,0,0.936,4.792,1.188,9.042
    c0.25,4.25-1.666,31.428-1.666,31.438
    l-21.674,18.532
    l-1.188,14.756
    l-4.048,3.574
    l-0.476,5.612
    l3.338,9.286
    l-2.862,6.908
    l1.668,0.956
    l10.956-2.866l15.476-0.952
    l-1.668,6.186
    l2.862,5.714
    l0.950,8.574
    l1.910,2.852
    l9.048,0.486
    l4.048,2.850
    l-4.528,5.602
    l-0.712,6.906
    l-3.334,8.10
    l2.126,2.86
    l5.72,0.476
    l9.762,3.568
    l-1.186,2.324
    l6.424,9.762
    h9.048l11.422-6.466
    l3.572,1.914
    v3.812l1.664,5.712
    l2.864,2.858
    l6.184-0.954
    l2.384,1.668l2.144-2.384
    v-9.050l-3.812-16.666l2.862-5.0
    h9.524h2.384l5.24-6.426
    l13.566,4.522l5.716-5.006l2.862,2.862l5.716-3.572
    l5.23,5.236h2.146l1.906-2.856l4.522-4.526l2.146,1.666l6.426-1.19
    l6.198-5.004l5.238-7.622l7.376-1.662l4.046,4.042l2.86-8.0496l5.714-0.470
    l2.138-1.668l1.914-7.382l-2.384-4.046l-19.520-3.570l-3.336-5.714h-5.708h-5.238
    l-3.812-6.194l0.48-3.330l2.376-13.914l-7.618-7.378l5.718-24.054l-3.816-3.334
    l-12.618,3.812l-2.862-5.02v-5.712l-2.456-2.86l6.188-8.562l6.906,2.14
    l2.86-2.858l12.626,1.902l5.712-1.902
    L300,200.296Z"/>
</svg>
