<?xml version="1.0" encoding="utf-8"?>
<!-- Generator: Adobe Illustrator 15.0.0, SVG Export Plug-In . SVG Version: 6.00 Build 0)  -->
<!DOCTYPE svg PUBLIC "-//W3C//DTD SVG 1.1//EN" "http://www.w3.org/Graphics/SVG/1.1/DTD/svg11.dtd">
<svg version="1.1" id="Layer_1" xmlns="http://www.w3.org/2000/svg" xmlns:xlink="http://www.w3.org/1999/xlink" x="0px" y="0px"
	 width="1024px" height="768px" viewBox="0 0 1024 768" enable-background="new 0 0 1024 768" xml:space="preserve">
     <path id="neimenggu"
        fill="green" stroke="black" stroke-width="1"
     d="M301.969,226.604l3.438-0.779l2.859-1.188l4.762-3.932l0.953-6.31l2.855-9.168l5.954-4.048l0.835,0.951l1.786,6.19l-2.858,4.049l-0.594,3.691l9.168,3.453l0.832,2.621l5.358-0.359l2.617,0.596l1.191,0.834l9.405-13.454l2.502-0.835l0.593-1.664l-0.236-2.623l3.096-4.523l6.072-0.358l2.262-2.5l1.431,1.074l3.452-2.86h1.904l6.312-9.046l3.215,0.235l3.93-2.855l1.191,1.189l7.381-3.809l-3.689-6.193l1.189-6.311l3.096-6.549l2.619-1.188l1.666,0.832v4.644l2.025,1.43l4.526-3.453l2.021-2.026l2.022,0.835l2.265-2.025l4.881-0.234l0.834-1.667l-1.191-2.622l3.453-3.452l4.049-2.024l6.31,6.908l-0.355,2.618l3.213,4.763l7.385,0.595l1.666-3.453l-1.903-10.002l1.666-1.667l3.453,2.262l3.096,4.644l4.881-7.5l2.264-0.596l3.689-3.692h1.787l3.094-3.095h1.787l1.666-2.856h4.527l4.047-4.051l2.021-2.021v-2.264l-3.213-1.667v-4.286l-5.953-7.502l-5.717,5.478l-1.666-1.19l-0.357-3.096l-2.264-3.453l-0.594-3.931v-4.046l-3.928-2.858l-0.601-1.667l1.074-2.382l7.502,2.022l0.238-3.452l2.621-3.099l-1.789-1.666l0.358-3.214l3.689-1.667l0.834-1.19l-0.598-1.07l-3.927,1.07l-7.145-4.882l-0.357-1.43l3.453-4.524l7.146-10.597l0.594-1.072h1.193l2.26,2.858l0.596,0.479l0.238-13.336l2.26-1.191v-5.121l-0.594-8.333l2.858-11.668l-8.575-6.312l-6.548,5.478l-3.45,0.476l-1.668,1.786l-5.718-0.832l-2.854-3.215l-1.664-5.122l0.236-2.021l-4.525-2.858l-2.621,4.289l-4.881-3.096l-0.834-0.835l2.856-7.5L433.4,7.223h-2.024l-5.119,3.688l-4.285,6.311l1.668,1.071l3.211,0.359l2.504,6.548l-1.43,2.618l-2.502,3.689l-4.644,17.147l1.785,2.856l-1.428,2.498l-10.599,7.742l-5.713-1.071l-3.215-1.191l-0.479,1.667l-4.642,18.577l-2.264,2.378l1.191,3.335l2.854,2.382l4.764-2.623l7.74,0.598l2.26-3.692l4.052-0.951l7.737,2.856l9.408,9.765v2.023l-2.024,1.429l-10.836,0.599l-3.691,2.854l-2.857-0.355l-2.022,3.214l-5.121,1.07l-3.457,5.12l-0.592,3.81l-7.379,4.763l-4.646,0.598l-5.119,6.904l-4.883,2.859l-9.408-2.025l-3.092-1.431l-3.692,3.694l-1.785,6.548l5.119,7.501l-3.335,3.451l-4.643,2.859c0,0-8.422,10.638-6.787,8.571c1.637-2.064-6.619,3.36-8.93,3.93c-2.31,0.568-14.525,1.429-14.525,1.429l-2.264-0.237l-16.906,7.144l-7.742,4.881l-2.262-1.19l-0.83-2.262l-10.36-0.597l-11.909-3.688l-3.211-3.69l-17.385-2.025l-3.217,1.43l-21.072-2.022l-0.358,3.095l1.43,4.883l-0.834,7.976l6.073,8.929l3.096,2.026l4.883-3.812h10.237l2.623,0.953l1.426,2.262l-1.19,2.5l-5.714,4.646l0.597,2.261l6.549,4.88h2.618l0.834,1.072l-0.596,2.023l4.05,3.217l9.403,1.429l4.527-1.19l5.716-5.719l6.903,0.598l2.857,4.289l-1.664,3.926l0.473,2.382l-3.688,2.263l-1.668,2.024l0.596,4.76l6.545,4.647L301.969,226.604Z"/>
</svg>
